pendulum_states
version=1
nRows=171
nColumns=3
inDegrees=yes

# SIMM Motion File Header:
name pendulum_states
datacolumns 3
datarows 171
otherdata 1
range 0.000000 10.000000
endheader
time	r1_z	r1_z_u
      0.00000000	     90.00000001	      0.00000000
      0.01000000	     89.95041987	     -9.91653100
      0.05106518	     88.70551351	    -50.76216507
      0.08346469	     86.53497893	    -83.27390555
      0.11586420	     83.30635567	   -116.06090032
      0.14826370	     79.01392425	   -148.87086092
      0.18066321	     73.66603654	   -181.07511040
      0.21306272	     67.29762084	   -211.68274927
      0.25261055	     58.24534519	   -245.29200210
      0.29215839	     47.96927330	   -273.36123486
      0.32211696	     39.51809035	   -290.08454892
      0.35207552	     30.64016584	   -301.57689105
      0.37886875	     22.48768742	   -305.92572586
      0.40288743	     15.14925219	   -304.24503538
      0.42690610	      7.91316705	   -297.53704061
      0.45092478	      0.88677926	   -287.04966087
      0.47503776	     -5.88524753	   -274.42228150
      0.49915074	    -12.34141749	   -261.00178066
      0.52326372	    -18.47028832	   -247.30732504
      0.55352173	    -25.68837137	   -229.68095925
      0.59216529	    -34.10775301	   -205.72403922
      0.63080885	    -41.55778976	   -179.44189828
      0.66945241	    -47.94547960	   -150.78776058
      0.71940406	    -54.49402541	   -110.96776665
      0.76935571	    -58.99658445	    -69.03745576
      0.81930737	    -61.37088923	    -25.88885415
      0.85902111	    -61.71106176	      8.77256247
      0.90998128	    -60.13455217	     52.96759813
      0.95235150	    -57.12888042	     88.67680409
      0.99472173	    -52.64614402	    122.53070557
      1.03709196	    -46.78622832	    153.49985575
      1.07946218	    -39.69596189	    180.38661478
      1.12183241	    -31.57912424	    201.66100020
      1.16420263	    -22.71444039	    215.34166490
      1.19600245	    -15.78547900	    219.53453276
      1.22780226	     -8.80945839	    218.35567294
      1.25960207	     -1.94758948	    212.53581531
      1.29200273	      4.79413152	    203.14294468
      1.32440339	     11.19201628	    191.46969156
      1.35680405	     17.18411283	    178.15609220
      1.38920471	     22.72112943	    163.38704271
      1.44404025	     30.92295397	    135.05415749
      1.49887580	     37.45821832	    102.67997313
      1.55371135	     42.12423351	     67.05203909
      1.61668939	     44.98915949	     23.62185969
      1.65547132	     45.37580975	     -3.70694508
      1.72928936	     43.19559350	    -54.97099816
      1.77638848	     39.87566223	    -85.60406483
      1.82348761	     35.17932676	   -113.20540020
      1.87058673	     29.28086297	   -136.40652864
      1.91768586	     22.42325127	   -153.67571884
      1.95768227	     16.07909580	   -162.62702814
      1.99767868	      9.49063337	   -165.88139263
      2.03767508	      2.88191831	   -163.75209115
      2.07767149	     -3.54883447	   -157.16418613
      2.11766790	     -9.64491241	   -147.17083611
      2.15766431	    -15.28583719	   -134.49208703
      2.19766071	    -20.37271244	   -119.51184455
      2.25768882	    -26.77886408	    -93.21196075
      2.33716252	    -32.61280750	    -52.69997898
      2.41663622	    -35.05182733	     -8.29811457
      2.44875996	    -35.02425278	     10.01089284
      2.48088371	    -34.41048662	     28.14697064
      2.54046868	    -31.76336410	     60.25424039
      2.60005364	    -27.30467120	     88.59636774
      2.65963861	    -21.32348225	    110.99397415
      2.70762938	    -15.67869629	    123.31505384
      2.75562015	     -9.58176316	    129.77304199
      2.80361093	     -3.31751659	    130.34469805
      2.85160170	      2.84478580	    125.67011464
      2.90032201	      8.76073698	    116.51918837
      2.94904231	     14.13988269	    103.74889362
      2.99776262	     18.82090533	     87.94567397
      3.06368693	     23.80542026	     62.59885010
      3.16049147	     27.82866588	     19.70828863
      3.20353658	     28.24468522	     -0.41646929
      3.29649033	     26.20592648	    -42.87595243
      3.37970957	     21.23388273	    -75.30391769
      3.43921940	     16.21037659	    -92.53332855
      3.49201930	     11.04061467	   -102.37936801
      3.54481921	      5.49812437	   -106.62747706
      3.59761912	     -0.12310402	   -105.43472042
      3.65346266	     -5.85281184	    -98.94886395
      3.70930620	    -11.09084315	    -87.96784445
      3.76514974	    -15.60876939	    -73.28114910
      3.82099328	    -19.21966225	    -55.60122403
      3.89937847	    -22.48497849	    -27.15477985
      3.97776365	    -23.41973137	      3.46398454
      4.06789157	    -21.53508025	     37.82486690
      4.15801950	    -16.77640195	     66.38800539
      4.21579299	    -12.54072301	     79.43868436
      4.27356648	     -7.69746239	     87.32164617
      4.33133998	     -2.55689465	     89.72887059
      4.38911347	      2.56957189	     86.91424689
      4.44957312	      7.61002497	     79.05159886
      4.51003277	     12.04342456	     66.96986253
      4.57049242	     15.63938612	     51.48578436
      4.63095207	     18.21736939	     33.44030655
      4.71061584	     19.85165875	      7.29484277
      4.74999407	     19.87713852	     -6.00111515
      4.78937229	     19.38135095	    -19.11779134
      4.86707968	     16.94476293	    -42.98753342
      4.94478706	     12.82996839	    -61.88060156
      5.00546499	      8.75252407	    -71.71965191
      5.06614292	      4.22769598	    -76.57137187
      5.12682085	     -0.43717013	    -76.36520060
      5.19317077	     -5.34821608	    -70.79870943
      5.25952069	     -9.72611576	    -60.44209538
      5.32587062	    -13.28333512	    -46.22063933
      5.39222054	    -15.79606894	    -29.13090535
      5.45857046	    -17.10944096	    -10.25571856
      5.50530708	    -17.26803501	      3.48537640
      5.56484836	    -16.54416281	     20.69191179
      5.64328710	    -14.09884924	     41.04148425
      5.71308264	    -10.71537028	     55.15310450
      5.78287818	     -6.51938607	     64.15874175
      5.85267372	     -1.89391441	     67.41231012
      5.92246926	      2.75768677	     64.96841351
      5.99027991	      6.94172117	     57.69232936
      6.05809057	     10.49068383	     46.38139349
      6.12590122	     13.16143988	     31.95168654
      6.19371188	     14.77636303	     15.41743975
      6.26152253	     15.22957634	     -2.12292040
      6.33772205	     14.32168332	    -21.48515577
      6.41392156	     12.01583267	    -38.47348104
      6.49012107	      8.56670891	    -51.21945205
      6.56632059	      4.35196720	    -58.41146740
      6.64252010	     -0.17982101	    -59.52242053
      6.71826947	     -4.54594361	    -54.85033301
      6.79401885	     -8.36356902	    -45.19923013
      6.86976822	    -11.29465413	    -31.63791369
      6.94551760	    -13.08934526	    -15.41565596
      7.02126698	    -13.59771496	      2.08591697
      7.10058649	    -12.70965087	     20.08130604
      7.17990601	    -10.47565370	     35.68323109
      7.25922553	     -7.16133234	     47.05811290
      7.33854505	     -3.15561195	     52.97532699
      7.41786457	      1.08603114	     53.00280632
      7.49309526	      4.91012344	     47.87664715
      7.56832596	      8.18182556	     38.46244516
      7.64355665	     10.61405115	     25.73799205
      7.71878734	     12.00003840	     10.85052890
      7.79401804	     12.22396798	     -4.93565524
      7.86924873	     11.27090045	    -20.17353616
      7.94447942	      9.24292980	    -33.25677538
      8.01971012	      6.35583508	    -42.81811128
      8.09494081	      2.91240003	    -47.93983242
      8.17017150	     -0.73655054	    -48.27146423
      8.25006373	     -4.43913049	    -43.60458857
      8.32995596	     -7.58512568	    -34.49171105
      8.40984819	     -9.86001895	    -21.99489430
      8.48974042	    -11.04327441	     -7.38972079
      8.54606204	    -11.15567988	      3.41277120
      8.60238366	    -10.66275007	     14.00336386
      8.68256804	     -8.98217406	     27.48907071
      8.76275241	     -6.34294512	     37.68028318
      8.84293679	     -3.05857307	     43.44107770
      8.92312117	      0.49096249	     44.26503976
      9.00870171	      4.12732432	     39.85484713
      9.09428225	      7.17825156	     30.75398298
      9.17986279	      9.29141085	     18.16583692
      9.26544333	     10.22987807	      3.56280900
      9.35102387	      9.89043865	    -11.40175170
      9.43660441	      8.32313240	    -24.80430328
      9.52218495	      5.74156096	    -34.84146059
      9.60776549	      2.49270408	    -40.24521611
      9.69334603	     -0.99845260	    -40.47838065
      9.77944563	     -4.31156304	    -35.69448126
      9.86554523	     -7.02254821	    -26.65979052
      9.95164484	     -8.81386640	    -14.55211545
     10.00000000	     -9.33485883	     -6.93213293
